<svg xmlns="http://www.w3.org/2000/svg" width="16" height="16" viewBox="0 0 16 16" fill="none">
  <g clip-path="url(#clip0_560_2875)">
    <path
      d="M12.0099 3.75L12.0073 2.49685C12.0055 1.66966 11.3344 1.00003 10.5072 1.00007L8.98835 1.00013H3.00086C2.17213 1.00013 1.50044 1.67217 1.50086 2.5009L1.50521 11.0008C1.50564 11.8289 2.17709 12.5 3.00521 12.5H3.96807M12.0099 3.75V9.74987V11C12.0099 11.8284 11.3384 12.5 10.5099 12.5H3.96807M12.0099 3.75H13.0001C13.8285 3.75 14.5001 4.42157 14.5001 5.25V13.5C14.5001 14.3284 13.8285 15 13.0001 15H5.46807C4.63965 15 3.96807 14.3284 3.96807 13.5V12.5"
      stroke="none" stroke-width="1.5" />
    <path class="has-fill" fill-rule="evenodd" clip-rule="evenodd"
      d="M3.96814 4.75C3.96814 4.33579 4.30393 4 4.71814 4H9.24954C9.66375 4 9.99954 4.33579 9.99954 4.75C9.99954 5.16421 9.66375 5.5 9.24954 5.5H4.71814C4.30393 5.5 3.96814 5.16421 3.96814 4.75Z"
      fill="none" />
    <path class="has-fill" fill-rule="evenodd" clip-rule="evenodd"
      d="M3.96817 8.24316C3.96817 7.82895 4.30396 7.49316 4.71817 7.49316H8.04329C8.45751 7.49316 8.79329 7.82895 8.79329 8.24316C8.79329 8.65738 8.4575 8.99316 8.04329 8.99316H4.71817C4.30396 8.99316 3.96817 8.65738 3.96817 8.24316Z"
      fill="none" />
  </g>
  <defs>
    <clipPath id="clip0_560_2875">
      <rect width="16" height="16" fill="white" />
    </clipPath>
  </defs>
</svg>