<svg width="95" height="23" viewBox="0 0 95 23" fill="none" xmlns="http://www.w3.org/2000/svg">
<g id="&#230;&#153;&#186;&#232;&#176;&#177;&#230;&#184;&#133;&#232;&#168;&#128;">
<path id="Vector" d="M52.6732 6.18848H49.9805C50.3209 6.8774 50.6641 7.65964 51.0018 8.51599C51.3589 9.42448 51.677 10.2946 51.9421 11.1042H54.7912C54.4814 10.2644 54.1438 9.39978 53.7866 8.54069C53.4155 7.64592 53.0416 6.85544 52.6704 6.18848H52.6732Z" fill="#1A2029"/>
<path id="Vector_2" d="M53.8832 2.44113C53.6878 1.99374 53.4841 1.55185 53.2748 1.12916C53.0963 0.772351 52.9121 0.418284 52.7251 0.0751953H52.6665H50.0156C50.1831 0.401815 50.3393 0.717457 50.4928 1.03859C50.6965 1.47774 50.8974 1.92787 51.0844 2.37526C51.2685 2.80892 51.4499 3.26454 51.6369 3.76134C51.7931 4.17304 51.941 4.58749 52.0805 4.99096H54.9128C54.7621 4.582 54.617 4.20049 54.4691 3.82995C54.2543 3.29748 54.0701 2.85558 53.8859 2.43839L53.8832 2.44113Z" fill="#1A2029"/>
<path id="Vector_3" d="M51.7256 14.7788C51.5665 15.6434 51.3907 16.5409 51.1982 17.4439C51.0057 18.3469 50.7964 19.2664 50.5732 20.1749C50.3667 21.0093 50.163 21.7943 49.9648 22.5107H52.8669C53.0455 21.7806 53.2296 20.9901 53.411 20.1585C53.6035 19.2774 53.7877 18.3744 53.9607 17.4741C54.1309 16.5821 54.29 15.6873 54.4323 14.8145C54.5635 14.0103 54.6751 13.2555 54.756 12.5693H52.0772C51.9935 13.2226 51.8735 13.9664 51.7256 14.7788Z" fill="#1A2029"/>
<path id="Vector_4" d="M93.8973 5.04102H75.1875V7.32736H93.8973V5.04102Z" fill="#1A2029"/>
<path id="Vector_5" d="M28.9044 4.89062H24.9141V7.3389H26.1028V22.6571L30.4531 20.5519V17.659L28.9044 18.5044V4.89062Z" fill="#1A2029"/>
<path id="Vector_6" d="M26.3371 3.5374H29.5573C29.3703 2.80182 29.1862 2.14309 29.0104 1.57219C28.8597 1.08089 28.6895 0.578608 28.483 0.0351562H25.3828C25.5586 0.556651 25.7205 1.08363 25.8656 1.59964C26.0386 2.22543 26.1976 2.87593 26.3371 3.5374Z" fill="#1A2029"/>
<path id="Vector_7" d="M86.1662 0.879394V0.0751953H82.907V0.879394H74.0781V3.14652H94.9979V0.879394H86.1662Z" fill="#1A2029"/>
<path id="Vector_8" d="M93.8973 9.21387H75.1875V11.5002H93.8973V9.21387Z" fill="#1A2029"/>
<path id="Vector_9" d="M75.4062 22.6609H89.523C91.8139 22.6609 93.6779 20.9427 93.6779 18.8348V13.167H75.4062V22.6637V22.6609ZM78.4534 15.4314H90.6168V18.8348C90.6168 19.6939 89.8634 20.3938 88.9398 20.3938H78.4534V15.4314Z" fill="#1A2029"/>
<path id="Vector_10" d="M65.0991 6.56643H70.2418V4.29655H65.0991V3.14652H71.1738V0.879394H65.0991V0.0751953H61.8398V0.879394H55.7651V3.14652H61.8398V4.29655H56.6971V6.56643H61.8398V7.71646H55.6172V9.98358H71.3217V7.71646H65.0991V6.56643Z" fill="#1A2029"/>
<path id="Vector_11" d="M56.5469 22.6645H59.5912V20.0735V19.2418H67.2649C67.0612 19.8896 66.4166 20.3644 65.6576 20.3644H65.3172V22.6315H66.2408C68.5317 22.6315 70.3958 20.9133 70.3958 18.8027V10.9336H56.5469V22.6645ZM59.594 17.3782V16.2775H67.3347V17.3782H59.594ZM67.3347 13.2035V14.4139H59.594V13.2035H67.3347Z" fill="#1A2029"/>
<path id="Vector_12" d="M1.3125 22.6604H15.7222C18.0132 22.6604 19.8772 20.9422 19.8772 18.8342V12.332H1.3125V22.6604ZM15.4293 20.3932H4.35964V18.428H16.8161V18.8342C16.8161 19.6933 16.3557 20.3932 15.432 20.3932H15.4293ZM16.8133 14.5992V16.5671H4.35685V14.5992H16.8133Z" fill="#1A2029"/>
<path id="Vector_13" d="M31.6719 22.6592H41.6588C43.9497 22.6592 45.8137 20.941 45.8137 18.8303V12.3281H31.6747V22.6565L31.6719 22.6592ZM41.0756 20.3893H34.719V18.4241H42.7526V18.8303C42.7526 19.6894 41.9992 20.3893 41.0756 20.3893ZM42.7526 14.5953V16.5632H34.719V14.5953H42.7526Z" fill="#1A2029"/>
<path id="Vector_14" d="M42.9324 3.63674H46.7916V1.52606H43.51L43.6244 1.31197C43.7584 1.0622 43.8728 0.820667 43.9677 0.576388C44.0486 0.367791 44.1128 0.175661 44.1602 0H40.795C40.6778 0.488558 40.4992 0.963392 40.248 1.44921L40.2062 1.5288H37.932L37.8985 1.43274C37.8092 1.18571 37.706 0.935945 37.5832 0.669709C37.4771 0.447387 37.3627 0.227811 37.2288 0.00274477H37.1646H33.9584C34.0365 0.164682 34.1175 0.337599 34.1956 0.521494C34.3072 0.774007 34.4105 1.04024 34.5081 1.33667L34.5723 1.5288H31.1345V3.63948H35.0774V9.28534H30.9141V11.5003H46.8585V9.28534H42.9324V3.63948V3.63674ZM40.3429 9.2826H37.6418V3.63674H40.3429V9.2826Z" fill="#1A2029"/>
<path id="Vector_15" d="M34.5221 8.18967C34.257 6.96279 33.8998 5.81001 33.4589 4.75879H30.9141C31.1261 5.31871 31.3131 5.88137 31.4721 6.43581C31.6396 7.02043 31.7791 7.61054 31.8879 8.19242H34.5249L34.5221 8.18967Z" fill="#1A2029"/>
<path id="Vector_16" d="M43.8818 6.46657C43.7227 7.01002 43.5106 7.58092 43.2539 8.16829H45.8155C46.0555 7.61935 46.2676 7.04571 46.4434 6.46108C46.6108 5.90116 46.7503 5.31105 46.8563 4.70996H44.2975C44.1887 5.30556 44.0492 5.89842 43.8818 6.46657Z" fill="#1A2029"/>
<path id="Vector_17" d="M11.1211 11.4982H16.7326C19.0236 11.4982 20.8876 9.77999 20.8876 7.67206V0.878906H11.1211V11.4982ZM14.1682 3.14603H17.8265V7.66931C17.8265 8.5284 17.0731 9.2283 16.1494 9.2283H14.1654V3.14603H14.1682Z" fill="#1A2029"/>
<path id="Vector_18" d="M0.0920845 11.3669C1.92818 10.8536 3.56616 9.89024 4.85255 8.57278C6.26729 10.0247 8.08944 11.0348 10.1404 11.4986V9.13545C8.87076 8.74844 7.7518 8.08697 6.85049 7.2114H10.1404V4.94428H6.68028V3.24256H10.0511V0.972685H4.21354L4.63769 0.03125H1.40638L1.01851 0.887599L0.979442 0.972685H0.945954L0.775738 1.36518L0 3.23981H3.18109H3.69173V4.94153H0.128361V7.20866H2.83786C2.06491 7.95797 1.13012 8.55357 0.0837136 8.9488V11.3614L0.0920845 11.3669Z" fill="#1A2029"/>
</g>
</svg>
