<svg width="40" height="40" viewBox="0 0 40 40" fill="none" xmlns="http://www.w3.org/2000/svg">
<g id="logo">
<g id="logo_2">
<path id="Vector" fill-rule="evenodd" clip-rule="evenodd" d="M6.30855 23.0044C6.30855 20.8428 7.5862 18.674 10.0914 16.9633C12.5859 15.2598 16.1361 14.1432 20.1515 14.1432C24.167 14.1432 27.7172 15.2598 30.2117 16.9633C31.475 17.8258 32.4234 18.8064 33.0569 19.8407C33.8263 18.4235 34.1592 16.9168 33.9802 15.4137C33.9695 15.3135 33.9802 15.2133 34.0089 15.1238C33.4971 14.6585 32.9424 14.2219 32.359 13.8247C29.1559 11.6344 24.8327 10.3389 20.1551 10.3389C15.4776 10.3389 11.1579 11.6308 7.95125 13.8247C4.75175 16.0113 2.50781 19.2251 2.50781 23.0044C2.50781 26.7837 4.75175 29.9975 7.94409 32.1806C11.1472 34.3708 15.4704 35.6664 20.148 35.6664C24.8255 35.6664 29.1488 34.3744 32.3518 32.1806C35.5478 29.9975 37.7881 26.7872 37.7881 23.0044C37.7881 20.5994 36.8827 18.4271 35.401 16.6019C35.3259 18.2839 34.7318 19.9015 33.744 21.376C33.9051 21.9164 33.9874 22.464 33.9874 23.008C33.9874 25.1696 32.7097 27.3384 30.2045 29.0491C27.7101 30.7526 24.1599 31.8692 20.1444 31.8692C16.1289 31.8692 12.5787 30.7526 10.0842 29.0491C7.58262 27.3384 6.30139 25.1696 6.30139 23.008H6.30497L6.30855 23.0044Z" fill="#3762FF"/>
<path id="Vector_2" fill-rule="evenodd" clip-rule="evenodd" d="M6.28207 18.5902C5.26926 21.464 5.50904 24.0587 6.82606 25.9197C8.14307 27.7807 10.5123 28.8687 13.5615 28.8687C16.6106 28.8687 20.1537 27.7628 23.414 25.458C26.6744 23.1497 28.8968 20.1721 29.9061 17.3018C30.9189 14.428 30.6791 11.8333 29.3621 9.97234C28.0451 8.11134 25.6759 7.02337 22.6267 7.02337C19.5775 7.02337 16.0344 8.12922 12.7741 10.434C9.51377 12.7424 7.29131 15.72 6.28207 18.5902ZM2.63522 17.3054C3.94508 13.5977 6.70437 9.9938 10.5409 7.28103C14.3738 4.56469 18.6935 3.1582 22.6267 3.1582C26.5598 3.1582 30.2818 4.57901 32.5186 7.73556C34.7554 10.8957 34.8592 14.8789 33.5529 18.583C32.243 22.2907 29.4838 25.8946 25.6472 28.6074C21.8107 31.3202 17.4946 32.7303 13.5615 32.7303C9.63187 32.7303 5.90629 31.3094 3.66951 28.1529C1.43273 24.9928 1.32894 21.0059 2.63522 17.3054Z" fill="#194AFA"/>
</g>
</g>
</svg>
